<?xml version="1.0" encoding="UTF-8" standalone="no"?><!DOCTYPE svg PUBLIC "-//W3C//DTD SVG 1.1//EN" "http://www.w3.org/Graphics/SVG/1.1/DTD/svg11.dtd"><svg width="100%" height="100%" viewBox="0 0 267 267" version="1.1" xmlns="http://www.w3.org/2000/svg" xmlns:xlink="http://www.w3.org/1999/xlink" xml:space="preserve" xmlns:serif="http://www.serif.com/" style="fill-rule:evenodd;clip-rule:evenodd;stroke-linecap:round;stroke-linejoin:round;stroke-miterlimit:1;"><g><path d="M106.263,61.181l-0.078,0l27.052,-54.208l27.135,54.167l-0.078,0c-8.364,-3.314 -17.481,-5.132 -27.02,-5.125c-9.538,0.007 -18.652,1.839 -27.011,5.166Z" style="fill:none;stroke:#000;stroke-width:8.33px;"/><path d="M57.164,120.787l-0.039,0.067l-33.419,-50.532l60.477,3.584l-0.039,0.068c-7.052,5.587 -13.185,12.573 -17.948,20.837c-4.763,8.264 -7.733,17.073 -9.032,25.976Z" style="fill:none;stroke:#000;stroke-width:8.33px;"/><path d="M84.235,193.11l0.039,0.068l-60.472,3.675l33.342,-50.583l0.04,0.068c1.312,8.901 4.295,17.705 9.071,25.962c4.775,8.257 10.919,15.234 17.98,20.81Z" style="fill:none;stroke:#000;stroke-width:8.33px;"/><path d="M160.404,205.828l0.078,-0l-27.053,54.208l-27.135,-54.167l0.079,-0c8.364,3.314 17.481,5.132 27.019,5.125c9.538,-0.007 18.652,-1.84 27.012,-5.166Z" style="fill:none;stroke:#000;stroke-width:8.33px;"/><path d="M209.502,146.222l0.039,-0.067l33.42,50.532l-60.478,-3.584l0.039,-0.068c7.053,-5.587 13.186,-12.573 17.948,-20.837c4.763,-8.264 7.734,-17.073 9.032,-25.976Z" style="fill:none;stroke:#000;stroke-width:8.33px;"/><path d="M182.432,73.899l-0.039,-0.068l60.472,-3.675l-33.343,50.583l-0.039,-0.068c-1.312,-8.901 -4.296,-17.705 -9.071,-25.962c-4.776,-8.257 -10.919,-15.234 -17.98,-20.81Z" style="fill:none;stroke:#000;stroke-width:8.33px;"/><path d="M133.284,68.75c35.645,-0.027 64.606,28.89 64.633,64.534c0.027,35.645 -28.89,64.606 -64.535,64.633c-35.644,0.027 -64.605,-28.89 -64.632,-64.535c-0.027,-35.644 28.89,-64.605 64.534,-64.632Z" style="fill:none;stroke:#000;stroke-width:8.33px;"/></g></svg>